<svg width="19" height="16" viewBox="0 0 19 16" fill="none" xmlns="http://www.w3.org/2000/svg">
<g clip-path="url(#clip0_135_116)">
<path d="M3.6875 2.90625C5.09375 1.84375 6.84375 1 9 1C11.5 1 13.5312 2.15625 15 3.53125C16.4688 4.875 17.4375 6.5 17.9062 7.625C18 7.875 18 8.15625 17.9062 8.40625C17.5 9.40625 16.6562 10.8438 15.4062 12.0938L18.6875 14.6875C19.0312 14.9375 19.0938 15.4062 18.8125 15.7188C18.5625 16.0625 18.0938 16.125 17.7812 15.8438L-0.71875 1.34375C-1.0625 1.09375 -1.125 0.625 -0.84375 0.3125C-0.59375 -0.03125 -0.125 -0.09375 0.1875 0.1875L3.6875 2.90625ZM5.96875 4.6875L8.78125 6.90625C8.90625 6.625 9 6.34375 9 6C9 5.65625 8.875 5.3125 8.71875 5.03125C8.8125 5.03125 8.90625 5 9 5C10.6562 5 12 6.34375 12 8C12 8.4375 11.9062 8.84375 11.7188 9.21875L12.9375 10.1562C13.2812 9.53125 13.5 8.78125 13.5 8C13.5 5.53125 11.4688 3.5 9 3.5C7.8125 3.5 6.75 3.96875 5.96875 4.6875ZM9 15C6.46875 15 4.4375 13.875 2.96875 12.5C1.5 11.125 0.53125 9.5 0.0625 8.40625C-0.03125 8.15625 -0.03125 7.875 0.0625 7.625C0.375 6.90625 0.875 6 1.59375 5.0625L4.53125 7.375C4.5 7.59375 4.5 7.8125 4.5 8C4.5 10.5 6.5 12.5 9 12.5C9.5625 12.5 10.125 12.4062 10.6562 12.1875L12.9375 14C11.7812 14.625 10.4688 15 9 15Z" fill="#D9D9D9"/>
</g>
<defs>
<clipPath id="clip0_135_116">
<rect width="19" height="16" fill="white"/>
</clipPath>
</defs>
</svg>
