<svg width="19" height="16" viewBox="0 0 19 16" fill="none" xmlns="http://www.w3.org/2000/svg">
<g clip-path="url(#clip0_135_116)">
<path d="M8.71875 5.03125C8.8125 5.03125 8.90625 5 9 5C10.6562 5 12 6.34375 12 8C12 9.65625 10.6562 11 9 11C7.3125 11 6 9.65625 6 8C6 7.9375 6 7.84375 6 7.75C6.28125 7.90625 6.625 8 7 8C8.09375 8 9 7.125 9 6C9 5.65625 8.875 5.3125 8.71875 5.03125ZM15 3.53125C16.4688 4.875 17.4375 6.5 17.9062 7.625C18 7.875 18 8.15625 17.9062 8.40625C17.4375 9.5 16.4688 11.125 15 12.5C13.5312 13.875 11.5 15 9 15C6.46875 15 4.4375 13.875 2.96875 12.5C1.5 11.125 0.53125 9.5 0.0625 8.40625C-0.03125 8.15625 -0.03125 7.875 0.0625 7.625C0.53125 6.5 1.5 4.875 2.96875 3.53125C4.4375 2.15625 6.46875 1 9 1C11.5 1 13.5312 2.15625 15 3.53125ZM9 3.5C6.5 3.5 4.5 5.53125 4.5 8C4.5 10.5 6.5 12.5 9 12.5C11.4688 12.5 13.5 10.5 13.5 8C13.5 5.53125 11.4688 3.5 9 3.5Z" fill="#D9D9D9"/>
</g>
<defs>
<clipPath id="clip0_135_116">
<rect width="19" height="16" fill="white"/>
</clipPath>
</defs>
</svg>
