<svg width="60" height="66" viewBox="0 0 60 66" fill="none" xmlns="http://www.w3.org/2000/svg">
<path d="M4.37708 3.6877C3.06925 6.81196 2.70597 12.3339 3.65051 14.8043C4.30443 16.6933 4.15911 17.8559 3.14191 20.9075C2.41534 23.0872 1.90674 26.7927 1.90674 30.0623C1.90674 37.6913 4.81303 43.5765 12.3694 51.1329C17.528 56.3642 28.0633 64.2112 29.8798 64.2112C31.6236 64.2112 42.2315 56.3642 47.3902 51.1329C56.763 41.8328 59.8872 32.7506 57.1262 23.1598C55.7458 18.4371 55.7458 17.9285 56.3997 11.898C56.9809 6.88462 55.5278 2.1619 53.2754 1.87127C52.4035 1.72595 50.0058 2.45253 47.9714 3.54239L44.1206 5.43147L40.4877 3.76036C35.1838 1.43533 24.5758 1.43533 19.2718 3.76036L15.639 5.43147L11.9334 3.54239C7.13806 1.1447 5.32163 1.21735 4.37708 3.6877ZM39.4705 8.04713C44.1933 10.1542 49.1339 14.9496 51.459 19.7449C54.22 25.3396 54.2926 33.1139 51.7496 38.3452C48.698 44.5211 33.3673 59.1252 29.8798 59.1252C26.4649 59.1252 11.0616 44.5211 8.15526 38.5632C2.488 26.7927 9.02715 12.0433 22.0328 7.39322C26.9735 5.64944 34.6752 5.94007 39.4705 8.04713ZM10.335 7.68385C11.2795 8.48308 11.1342 8.91902 9.39044 10.7355L7.35603 12.8425V10.2995C7.35603 6.81196 8.30058 6.01273 10.335 7.68385ZM52.2582 10.0815L52.4762 12.9152L50.4418 10.8081C48.6254 8.91902 48.48 8.48308 49.4246 7.68385C51.0957 6.30336 52.0402 7.02993 52.2582 10.0815Z" fill="currentColor"/>
<path d="M16.0748 14.9495C7.06531 19.5269 6.70202 35.0756 15.4209 43.7945C19.2717 47.6453 23.5585 49.3164 29.8797 49.3164C38.8892 49.3164 44.9197 45.4656 48.6979 37.328C51.2409 31.9513 51.3136 24.6129 48.9159 20.0355C45.4283 13.4237 36.7095 11.3167 31.7688 15.8941L29.8797 17.7105L28.3539 16.1847C25.157 12.9878 20.8702 12.5518 16.0748 14.9495ZM24.1398 18.4371C24.8663 18.873 26.1742 20.5441 26.9734 22.0699C28.8625 25.7755 30.8242 25.9208 32.4953 22.3606C34.1665 18.873 36.4915 17.4199 39.5431 18.0011C48.044 19.5996 48.9159 32.8232 41.1416 40.6702C35.0383 46.7734 24.721 46.7734 18.6178 40.6702C11.6427 33.6951 11.4974 22.1426 18.3272 18.655C20.4342 17.4925 22.2507 17.4925 24.1398 18.4371Z" fill="currentColor"/>
<path d="M18.9814 28.9724C17.7462 30.4255 18.6181 32.2419 20.4345 32.2419C21.2337 32.2419 22.1056 31.7333 22.3236 31.1521C22.7595 30.0622 21.5244 27.8825 20.4345 27.8825C20.1439 27.8825 19.49 28.3911 18.9814 28.9724Z" fill="currentColor"/>
<path d="M37.872 28.9724C36.6368 30.4255 37.5087 32.2419 39.3251 32.2419C40.1244 32.2419 40.9963 31.7333 41.2142 31.1521C41.6502 30.0622 40.415 27.8825 39.3251 27.8825C39.0345 27.8825 38.3806 28.3911 37.872 28.9724Z" fill="currentColor"/>
<path d="M26.247 36.1655C25.5205 37.1101 25.5205 37.6187 26.5377 39.0718C28.3541 41.8328 30.4612 42.1961 32.7135 39.9437C34.2393 38.4179 34.4573 37.764 33.8034 36.7468C32.7135 35.0757 27.5549 34.6397 26.247 36.1655Z" fill="currentColor"/>
</svg>
